PathFileType	4	(X/Y/Z)	C:\Users\chris\Documents\GitHub\baseballds\vids\pitch1_Sports2D\pitch1_Sports2D_m_person00.trc
DataRate	CameraRate	NumFrames	NumMarkers	Units	OrigDataRate	OrigDataStartFrame	OrigNumFrames
30	30	11	22	m	30	57	154
Frame#	Time	Hip			RHip			RKnee			RAnkle			RBigToe			RSmallToe			RHeel			LHip			LKnee			LAnkle			LBigToe			LSmallToe			LHeel			Neck			Head			Nose			RShoulder			RElbow			RWrist			LShoulder			LElbow			LWrist		
		X1	Y1	Z1	X2	Y2	Z2	X3	Y3	Z3	X4	Y4	Z4	X5	Y5	Z5	X6	Y6	Z6	X7	Y7	Z7	X8	Y8	Z8	X9	Y9	Z9	X10	Y10	Z10	X11	Y11	Z11	X12	Y12	Z12	X13	Y13	Z13	X14	Y14	Z14	X15	Y15	Z15	X16	Y16	Z16	X17	Y17	Z17	X18	Y18	Z18	X19	Y19	Z19	X20	Y20	Z20	X21	Y21	Z21	X22	Y22	Z22
57	1.9	1.6336279637523978	0.9499240076433315	0.0	1.522755105589629	0.9106576764102633	0.0	1.5615330254070658	0.4790163222202831	0.0	1.580318424994025	0.11170931510516731	0.0	1.613073347386427	-0.002399812558337065	0.0	1.5407351991574627	-0.0029524595682769205	0.0	1.5964015879996265	0.0684350551429663	0.0	1.7483773400452962	0.9289236966667336	0.0	1.79495098135463	0.5109050943540021	0.0	1.8788477678468822	0.15199149170589288	0.0	1.814478965309317	0.019237189197498405	0.0	1.8903557764473975	0.027918743975172924	0.0	1.8968726511418301	0.10318995797857838	0.0	1.586441556608686	1.5429101143006965	0.0	1.622556222761266	1.8095873199255015	0.0	1.7277479247321659	1.6673626270665036	0.0	1.39417715152787	1.4332041344874074	0.0	1.3406918877133163	1.1302068972717656	0.0	1.5081340940837968	1.178978499977096	0.0	1.7798529948658084	1.4601349291592935	0.0	1.8796277201456055	1.1916706638542038	0.0	1.7640694657966653	1.1353889648549997	0.0
58	1.9333333333333333	1.6384365004086048	0.9487746785484876	0.0	1.528696976526193	0.9087204441100238	0.0	1.565961010629266	0.47927761339256797	0.0	1.5842639758083819	0.11295853304065878	0.0	1.6163725280695365	0.0010508194359380922	0.0	1.5437852905692322	0.00041252636087425835	0.0	1.6010135695605783	0.06992214082649274	0.0	1.7535836746540643	0.9269385248451867	0.0	1.7992866737306363	0.509516587110069	0.0	1.8830957675108424	0.15340023629948185	0.0	1.8189489088816806	0.01845615685565936	0.0	1.8940038156569219	0.027121425789378553	0.0	1.9007719569157115	0.10610495183211194	0.0	1.5898169713466992	1.5425381385674461	0.0	1.6282356067782466	1.810018060602062	0.0	1.730696223064596	1.6660655819640562	0.0	1.3977225693458306	1.4337600840743228	0.0	1.3458048355034125	1.1298801390651194	0.0	1.5150648092392027	1.1809012541324078	0.0	1.784462575712775	1.4615719899030515	0.0	1.8824134472356318	1.1914787137522878	0.0	1.7672895826823556	1.1324390996323621	0.0
59	1.9666666666666666	1.6419936447478618	0.9479245039317215	0.0	1.5335874016555218	0.9054652658097283	0.0	1.5701260834945046	0.4783294854703945	0.0	1.5881608991069414	0.11597629311068124	0.0	1.6228168386978201	0.0013638018289459412	0.0	1.5488624860008586	0.0011540920962933088	0.0	1.6042204630825794	0.07293464892638625	0.0	1.7575225336423168	0.9236190473222339	0.0	1.8036638469595174	0.5081856939348567	0.0	1.8868104433762853	0.1551669267314517	0.0	1.824533339216835	0.017721472668513472	0.0	1.8983576577527896	0.02675959548511952	0.0	1.9039684696642263	0.10830384851210358	0.0	1.5943561892054883	1.5432161060871887	0.0	1.6346726227152588	1.809833146199394	0.0	1.7357499525953122	1.6651246302350315	0.0	1.4009327233249287	1.4337711504307034	0.0	1.349571715550511	1.130273110076118	0.0	1.5201997989849656	1.182343272282534	0.0	1.791414182091804	1.4616712885748537	0.0	1.8861099142310165	1.1877971928331386	0.0	1.7709187560613535	1.1310403238013853	0.0
60	2.0	1.645229970530042	0.9469181726871714	0.0	1.5372429126085927	0.9033940500053408	0.0	1.5738510769547482	0.47735627051099894	0.0	1.5915313892797849	0.12053367403409432	0.0	1.6297436962350225	0.0007246199776438412	0.0	1.5548020866047079	0.001639773285202592	0.0	1.6070463839054032	0.0768225725964349	0.0	1.761215522046579	0.9215601763051332	0.0	1.8085235556842976	0.5068517213425157	0.0	1.8906143673586215	0.15507329265079217	0.0	1.8292122970282003	0.017425171047974773	0.0	1.9032273517676823	0.027591340952844965	0.0	1.9071953781921207	0.10870646450512148	0.0	1.5994304543775277	1.5443151126275274	0.0	1.6407465974394002	1.809913212858354	0.0	1.74190987167386	1.664107664692496	0.0	1.4050195157770025	1.433127859068773	0.0	1.3525028232242473	1.1317293393799823	0.0	1.5246571862023608	1.181703703391926	0.0	1.7977523417489585	1.4612569399225992	0.0	1.8908147909352204	1.186071795625661	0.0	1.776689997363266	1.1322282458596558	0.0
61	2.033333333333333	1.649469836074927	0.9458549533900098	0.0	1.5412158441318855	0.9030746578439459	0.0	1.577140898439098	0.4772416398213914	0.0	1.5950317585542175	0.12452344499982078	0.0	1.6345289942924006	0.002271542857642025	0.0	1.5598704631777118	0.004421184438752984	0.0	1.61136901244095	0.07971002629890608	0.0	1.765136806924038	0.9211968600156271	0.0	1.8131525715761807	0.505777505374737	0.0	1.8943712974962637	0.15464492817315284	0.0	1.8328258279114864	0.017703032158859447	0.0	1.9079586359400793	0.029088869766170547	0.0	1.911385411385519	0.10969272142489278	0.0	1.6033212889563293	1.544797376123987	0.0	1.64607904876956	1.80998847585971	0.0	1.7473913442402313	1.6621632050917625	0.0	1.4097142189659482	1.4328799768170482	0.0	1.3565808104549133	1.1332515816075746	0.0	1.5302529113360757	1.1802178248466189	0.0	1.8012446862356772	1.461673368263582	0.0	1.8958373326202125	1.1893302202365614	0.0	1.7841623305268963	1.1343775069190447	0.0
62	2.0666666666666664	1.6546797338988906	0.946063266730388	0.0	1.545482733228841	0.9039912881040033	0.0	1.5803368491853937	0.47801313459886235	0.0	1.5993287847843918	0.12489495020153589	0.0	1.6381934241757243	0.00273868818781607	0.0	1.5637772474316545	0.005378108898078422	0.0	1.6164165174874303	0.07953085051841546	0.0	1.7687233159297475	0.9219300471241781	0.0	1.816813498927706	0.5065432510361777	0.0	1.897714285125754	0.155733989101782	0.0	1.8375103961964283	0.018224329680130037	0.0	1.9125139776653037	0.030170452374041305	0.0	1.9159875978833425	0.11098650549191012	0.0	1.6071846327044241	1.545154238314998	0.0	1.6512336001204155	1.8095766457672466	0.0	1.7518911170456335	1.6610823322881643	0.0	1.4141318807564254	1.4334472292240978	0.0	1.3623949668837545	1.1345471955460045	0.0	1.5351272381894308	1.180857876405591	0.0	1.8031955845341643	1.46216377951915	0.0	1.9005290665434365	1.1926995751835205	0.0	1.7901215062299232	1.136369066238041	0.0
63	2.1	1.6595373225111767	0.9479332619950234	0.0	1.5491609228949756	0.9057428825798187	0.0	1.5840640347916797	0.478958788314112	0.0	1.6039777474506398	0.1222112292509088	0.0	1.6418252197206005	-0.0010071844917603431	0.0	1.5671150554733153	0.0011388989324355703	0.0	1.6198225738554635	0.07777400367929488	0.0	1.7723120873287446	0.9236314729959261	0.0	1.8197840320167948	0.5093934431131408	0.0	1.9015582280456786	0.15747510937236905	0.0	1.8434194139563722	0.01894099864923791	0.0	1.916855119721117	0.030874153766224374	0.0	1.919926594454991	0.1107844678706024	0.0	1.6125947942315675	1.5457983236814936	0.0	1.6566955334638882	1.8096845181413626	0.0	1.7562915478064716	1.6619336329299037	0.0	1.4185140482837764	1.4345844116921092	0.0	1.3684195940973363	1.1363406582724678	0.0	1.5370265401525742	1.1838024843965436	0.0	1.8063235192786395	1.461699636341796	0.0	1.9048011435939292	1.1918467372379762	0.0	1.7927560778756753	1.1383227523987234	0.0
64	2.1333333333333333	1.6632769080700711	0.9498370265380962	0.0	1.5524943898712025	0.9072892959811414	0.0	1.5885210785337673	0.4801469306738732	0.0	1.6085945867805926	0.11998399650763093	0.0	1.6442596580330966	-0.004081953282643824	0.0	1.5699266290255198	-0.003141042285541176	0.0	1.6219460304203055	0.07745160287138407	0.0	1.7766388904088897	0.9258324638347688	0.0	1.8225041116299796	0.5118831962542371	0.0	1.9063678865204992	0.15877764458880358	0.0	1.8483233684272473	0.02034857376894753	0.0	1.920354602587528	0.03157597928855631	0.0	1.9235506801016002	0.11013354383049069	0.0	1.6180292886087073	1.5461512723139181	0.0	1.6623204783992498	1.8108695769822531	0.0	1.7615450491820415	1.6632855076249082	0.0	1.423498220338443	1.4363417444440378	0.0	1.3729642445280945	1.1385812494968721	0.0	1.537721054110504	1.1860737631945384	0.0	1.811133237781546	1.4610003521760722	0.0	1.9089619367552586	1.1896291817919689	0.0	1.7931948660212735	1.1400442283230459	0.0
65	2.1666666666666665	1.6664544887744392	0.950684763319312	0.0	1.556045364734464	0.9081046045599916	0.0	1.5927527318016523	0.4821232597642014	0.0	1.6130499856786256	0.12031726682955199	0.0	1.6454882945140459	-0.001098520730388424	0.0	1.5719390671967197	-0.0013633427741530995	0.0	1.6254133416606469	0.07907008414949479	0.0	1.780900163135145	0.9280085759583028	0.0	1.8250305043174602	0.5124403769927126	0.0	1.9107357129389482	0.15975347432298476	0.0	1.8514958084006514	0.02216219889439348	0.0	1.9233596745675847	0.03159361874184298	0.0	1.927777639739045	0.11072358053982695	0.0	1.6218087003301043	1.5460247780987253	0.0	1.6675668008225235	1.8120832598811263	0.0	1.767934574621532	1.6644645887263538	0.0	1.4287832161235716	1.438515619555717	0.0	1.3760207195043646	1.1401105655653876	0.0	1.5404416807589274	1.1866429326488408	0.0	1.816441745275394	1.4611470674351426	0.0	1.913057551988367	1.1898240955591857	0.0	1.7929329497975384	1.1415071959072414	0.0
66	2.2	1.6697141301966565	0.9510288503438681	0.0	1.5598998980101664	0.9087999305726013	0.0	1.5964087842750045	0.48377123158159285	0.0	1.6164854377815794	0.12262255301057397	0.0	1.648004658183342	0.004370556788565274	0.0	1.5742918785429294	0.0036154427590987235	0.0	1.6305090535865607	0.0812387733377069	0.0	1.7839576814656912	0.92937029583427	0.0	1.827701065697763	0.5120539106858188	0.0	1.9135453476328887	0.16041584660554917	0.0	1.8541297323519517	0.02333405121133655	0.0	1.927359977820215	0.03100014931956486	0.0	1.9322405811881955	0.111499637706341	0.0	1.6253643591795168	1.5460072036457064	0.0	1.6719460007539346	1.8123688695602351	0.0	1.7747311901862597	1.6652735775722582	0.0	1.4336345459745095	1.4402094722677334	0.0	1.3791120297436141	1.1407123249153657	0.0	1.5450574451538897	1.1878584072752154	0.0	1.8218219486625347	1.462045462358853	0.0	1.916533247496691	1.190400258007758	0.0	1.7931810811589466	1.1431340575166085	0.0
67	2.2333333333333334	1.6733501059883225	0.9514253221875328	0.0	1.5638702280728412	0.9098760906852496	0.0	1.6004458514893738	0.4839898918968343	0.0	1.6186604043476134	0.1248305704482167	0.0	1.6529119632255473	0.0057897873793316046	0.0	1.578610538310662	0.005556640135596385	0.0	1.6351295726381192	0.0825996258454405	0.0	1.7868046717074808	0.92913332961612	0.0	1.8312716901639352	0.5118068889467898	0.0	1.915652192725204	0.16090440776318676	0.0	1.8567571082270586	0.02317374518512116	0.0	1.9322119830928315	0.03117076445634725	0.0	1.9361211306533208	0.1113423657012272	0.0	1.6306932912162777	1.5464829922444143	0.0	1.6758808197856885	1.8120488969082567	0.0	1.7804354328690797	1.6652262082741682	0.0	1.437712149715842	1.440594998107571	0.0	1.3834766241198428	1.141411884886425	0.0	1.5493242750815261	1.1905298413301948	0.0	1.827336415607008	1.4629427268883697	0.0	1.9192747066427531	1.1883048939228946	0.0	1.7955684556090958	1.144637546801346	0.0
